/* XPM */
static const char *ceiling_red_star_resized[] = {
/* columns rows colors chars-per-pixel */
"64 64 217 2 ",
"   c #370201",
".  c #3D0201",
"X  c #3E0807",
"o  c #3B0708",
"O  c #3D0909",
"+  c #440202",
"@  c #4C0203",
"#  c #420807",
"$  c #4D0903",
"%  c #470708",
"&  c #4C0709",
"*  c #450A0A",
"=  c #4C0C0C",
"-  c #530202",
";  c #5C0202",
":  c #540906",
">  c #5C0906",
",  c #530608",
"<  c #5A0608",
"1  c #530B0C",
"2  c #5C0B0B",
"3  c #49100F",
"4  c #5D1206",
"5  c #5D110C",
"6  c #521006",
"7  c #550F10",
"8  c #5B0F10",
"9  c #4C1312",
"0  c #491618",
"q  c #531313",
"w  c #591011",
"e  c #5B1414",
"r  c #531817",
"t  c #5F1E1F",
"y  c #610101",
"u  c #650102",
"i  c #610505",
"p  c #630202",
"a  c #690101",
"s  c #6D0202",
"d  c #6B0202",
"f  c #610907",
"g  c #6C0906",
"h  c #650708",
"j  c #620E0D",
"k  c #630B0B",
"l  c #6B0B0B",
"z  c #6B0608",
"x  c #750101",
"c  c #730202",
"v  c #790101",
"b  c #7C0202",
"n  c #720906",
"m  c #7C0907",
"M  c #730608",
"N  c #7B0708",
"B  c #730B0B",
"V  c #7B0A0B",
"C  c #681607",
"Z  c #63110F",
"A  c #6B120B",
"S  c #6A1508",
"D  c #73110E",
"F  c #721307",
"G  c #7C0C10",
"H  c #631211",
"J  c #641212",
"K  c #6B1313",
"L  c #661719",
"P  c #681719",
"I  c #6D1A1B",
"U  c #611A14",
"Y  c #721413",
"T  c #7B1313",
"R  c #7B1D15",
"E  c #741B1B",
"W  c #791A16",
"Q  c #662111",
"!  c #62211E",
"~  c #6C2817",
"^  c #742019",
"/  c #762424",
"(  c #752728",
")  c #7C2A26",
"_  c #7F3022",
"`  c #7F3F26",
"'  c #77362B",
"]  c #840202",
"[  c #8B0303",
"{  c #840807",
"}  c #8C0807",
"|  c #830608",
" . c #8C0708",
".. c #830A0B",
"X. c #8C0B0B",
"o. c #940302",
"O. c #9B0303",
"+. c #920807",
"@. c #9D0907",
"#. c #920608",
"$. c #9D0709",
"%. c #940B0B",
"&. c #9B0B0B",
"*. c #8E110F",
"=. c #80180A",
"-. c #86170D",
";. c #98110F",
":. c #900F11",
">. c #841414",
",. c #8C1413",
"<. c #881B19",
"1. c #931412",
"2. c #9C1312",
"3. c #901F12",
"4. c #901E1F",
"5. c #A30303",
"6. c #AB0303",
"7. c #AD0907",
"8. c #A30608",
"9. c #AD0608",
"0. c #A40C0C",
"q. c #AB0C0C",
"w. c #A50907",
"e. c #B30302",
"r. c #BC0303",
"t. c #B40806",
"y. c #BE0807",
"u. c #BC060A",
"i. c #B40B0B",
"p. c #BC0B0B",
"a. c #A3100E",
"s. c #A8100E",
"d. c #B1110E",
"f. c #BA110F",
"g. c #AB0F10",
"h. c #BD0E10",
"j. c #A31313",
"k. c #AB1212",
"l. c #A01916",
"z. c #A01718",
"x. c #AA1D1B",
"c. c #A51B1A",
"v. c #B41414",
"b. c #BB1313",
"n. c #BF1618",
"m. c #B2191A",
"M. c #B11816",
"N. c #902E1C",
"B. c #892815",
"V. c #8F2220",
"C. c #8D2826",
"Z. c #962425",
"A. c #823321",
"S. c #963826",
"D. c #823E34",
"F. c #A23F2B",
"G. c #C30203",
"H. c #CB0304",
"J. c #C30906",
"K. c #CC0609",
"L. c #C40B0C",
"P. c #CA0B0B",
"I. c #C80805",
"U. c #D30304",
"Y. c #DB0303",
"T. c #D30804",
"R. c #D40B0C",
"E. c #DC0B0A",
"W. c #D0070A",
"Q. c #C41414",
"!. c #C31814",
"~. c #CC1A18",
"^. c #C71D1A",
"/. c #D11112",
"(. c #DB1A17",
"). c #D01718",
"_. c #D11818",
"`. c #D91614",
"'. c #E30303",
"]. c #EC0303",
"[. c #E40806",
"{. c #E00708",
"}. c #E40A0B",
"|. c #ED0B0A",
" X c #F50403",
".X c #FB0203",
"XX c #F10807",
"oX c #FA0907",
"OX c #F50509",
"+X c #F4080A",
"@X c #F90B0B",
"#X c #F5110D",
"$X c #E41918",
"%X c #EB1C1B",
"&X c #F31715",
"*X c #C62718",
"=X c #D9231D",
"-X c #E2240C",
";X c #E73918",
":X c #D12B2A",
">X c #CA392F",
",X c #E52E22",
"<X c #E13225",
"1X c #F03326",
"2X c #84412C",
"3X c #9F402C",
"4X c #F14233",
"5X c #9C5140",
"6X c #A25945",
"7X c #A66C59",
"8X c #BD7962",
"9X c #C38674",
"0X c #DB9275",
"qX c #C19584",
"wX c #CDA695",
"eX c #E4B49C",
"rX c #F6DED3",
/* pixels */
"+ + @ w P K y u a u u y ; ; - @ @ q 1 @ @ @ @ @ @ @ @ + + @ @ + @ + @ + + + + + + + @ @ - - - ; u c c v b b v v c s y ; - - - , ",
"@ @ @ @ L P ; u u y h l < - - & w 1 @ @ @ @ @ @ @ & @ @ @ @ @ @ @ + + + + + + + + + @ @ @ - - - ; u s n c v v v c a y ; - - - - ",
"& @ @ @ - H k ; y y i f ; - - w w @ @ @ @ @ @ @ @ @ @ @ @ - @ @ @ + + + + + + + + + + @ & & - , ; i l B s c c v c a i < - - - @ ",
"1 & @ @ @ - H k ; ; ; ; ; - 5 8 @ @ @ @ @ - - - - @ - - @ @ @ @ + + + % % & + + + + + + @ e 1 8 - - f h u z s n a y ; - : : - @ ",
"@ @ , @ @ - : H k ; ; ; ; j k - @ @ - - - - - - - , - - @ & @ + + + + + + + + + + = # + + @ e 1 @ 2 2 f K l h D y ; - - 2 : - @ ",
"@ - - - - - - ; H Z i i Y A ; > k - : - - - - - - 1 @ @ 1 w + + + + + + + + . + # q # + + + % q = & & 8 k ; i h ; ; ; - - - - @ ",
"@ @ - - - - - - : H Z K B p y ; ; - < < < - - : @ @ @ @ @ @ @ = + . . . + . . . + . . . + + + % q = w w - ; ; ; ; ; ; ; 2 : @ @ ",
"- - - - - - - - < 2 I R n F g y ; < i y ; ; ; - - @ @ @ @ @ & q + # . + + + + . . . . . + + + + & t e @ - - - ; ; ; ; ; < - @ @ ",
"- - - - @ ; 4 S f / P R 6X8XN.d ; h h u y y y ; < @ @ @ @ @ @ + % = . + + + + . . + + + . . + + q q ! 1 @ - - ; ; ; ; ; ; - - @ ",
"- - - - - C 6X5XW E h D 8XeXS.p y y z s a i y ; - @ @ , @ @ @ @ + + + # % + + . + + + . . . + = q + 9 e 1 @ - - ; ; ; ; ; ; - @ ",
"- - j < > S 9X9X^ > l g B.S.R y y a <.V a i h ; - - @ - @ , @ @ + + + + + + . . . . . . + + q 9 + + + = e 1 @ 2 Z < H - - - : @ ",
"; ; f - : > _ A.C - k h n g D l h a V M s h i ; ; - - - - - @ + + + + + + . . . . . # X # q 3 . . + + + & q 1 : : : ( - @ @ @ 1 ",
"; ; ; > L H Z 2 > - ; y u y < E Y u s a u i < - - - - - - @ @ + + + + + + . . X + . . . 3 9 . . + % % + % % q 1 @ @ @ @ + @ + + ",
"i ; h f J H - - - - ; y y i f I E Y u u y ; - - 2 ; ; ; - @ @ @ @ @ @ & + . # = . . . = 9 = % & + + + + + + % q = 1 = + + + + + ",
"< ; < / I - - - < f ; y h h ; ; < K l y y i 2 - < ; ; < > - @ @ @ @ @ @ + . . X . . * 3 X # # % + + + + + + 3 = q = = & + + + . ",
"< k J ( 2 ; ; ; < f y u u u ; ; < f K l ; f f ; ; y ; f k - - - - @ + + + . . . . 3 3 . . = + + + + + + + % % # X 9 = % + % . . ",
": P H 2 2 < ; ; ; y a a a u ; ; ; < ; P H - ; ; y i ; ; ; ; k : - @ @ + + + . . 3 9 * # + # + + + + + + + = + . . # q % . . . . ",
"J k - - f y y y y a s c s u y ; ; k < k E k ; ; y y ; f < ; < : - @ @ @ + + . 9 r . # # + + + + + + + + + + . . . . # 9 # . . . ",
"E i ; y ; y y u a c c v c s y ; ; ; ; < < K l ; ; ; ; K > - - - 2 - @ @ @ + 3 3 # . . + @ + + + + + + + + + . . . X . X 9 # . . ",
"y u u u u y u s c v ] b v c u u u ; ; ; ; i K l < y ; ; ; ; - - : - - @ 1 e = + + + + + + + + + + + + + + + . . . . . . O 9 * . ",
"s s a a a u s v b ] ] { { b c s s u ; ; ; ; ; K l h i ; ; ; ; - - : J & w q + + + + + + + + + + + + + . . . . . # . . X * X 9 * ",
"v b c c s s c { ] ] ] ] ] { | b N s u ; ; ; ; < l K f ; ; ; ; ; 2 - - 8 1 + + + + % @ + @ + + + + + + + . . + + + . . * X X # 9 ",
"N v ,.,.v v v { ] ] b ] ] {  .] b c u h ; ; ; ; f f ; ; ; ; ; ; j : , 1 @ + + + + @ @ + @ @ @ @ @ @ $ : $ + + + + + . . . % # . ",
"] ]  .#.[ ] ] ] ] b v v b b ] ] v c a h l < ; - < ; ; y ; ; ; - - - : & + + + + @ 1 @ @ @ @ & @ @ : ' 7X` 4 + + + + & . . % . . ",
"o.o.O.O.5.$.#.[ ] b c c c c v b N s a y E k - - - ; y Y f ; ; - - - - @ + + + % @ - @ @ @ @ - @ @ 4 7XrXwX~ @ + % + % # . . . . ",
"O.O.5.5.6.q.8.O.o.] b >.c a c c M z u ; ; - - - - ; y h i ; ; - - - - @ + + + = & - , 1 - @ @ @ @ > 2XqXqX~ + + = q % . . . . . ",
"5.5.5.O.O.q.e.e.6.O.[ ,...c c M B D y ; i < ; ; ; ; y y ; ; < - > < < - @ @ @ @ @ , , 1 - @ @ @ @ - 4 ~ Q 6 % % % % + . . . .   ",
"O.5.8.O.O.6.G.G.G.e.O. .| v c n D u y ; ; y y y ; ; i ; ; Z H < ; < - - @ @ @ @ - - @ @ - @ - : - @ + + + # % q # # # . . . . . ",
"[ o.@.$.8.y.U.Y.'.H.6.[ v c T h i ; ; ; y y d l ; ; ; ; Z 2 : - < < ; - - - : - - - - - - - - - - @ + + . . . X # . . .   . . . ",
"] [ a.q.e.U.].@XOX}.e.o.b c l ; ; < ; ; y u u i - - - Z 5 - : < - ; ; - - - ; - ; ; > ; - ; - 2 2 & + + + . . . X . . . . . .   ",
"v ] o.e.U.]..X.XOX%XJ.O.] c a ; > 2 ; ; y y ; ; - < H 2 - - 2 < < ; ; ; ; ; ; ; y ; i ; ; < - ; 2 - @ + + + % . . .   . .   . . ",
"v b o.t.'..X.X.X.X|.G.q.%.b s < - - ; ; ; ; i ; ; / I - - - 2 2 f ; ; ; y y y u u u u h u y ; ; - - & @ + + % . . .     .       ",
"v b [ e.Y..X.X.X.X XU.v.1.,.a ; - - ; ; ; ; h i H H : - - - - - ; ; ; i y u u u u u a s a u y ; - - @ + + + . . . . .   . .   o ",
"c c ] 5.H. X.X.X@X&XE.i.+.| a i ; i j ; ; < j H Z ; ; ; ; - - - < ; ; ; ; y y u u u a a a u y ; ; < @ @ + + + + . . . . .   o 0 ",
"a c b &._.]..X.XXX|.Y.e.o.] s u h i i ; ; ; Z k ; y y y y y ; i h i ; ; ; < h y u u a s a a u ; ; - - @ @ @ @ @ + % % . . X 0 O ",
"l c c %.n.Y. X X].].Y.r.O.] c d h y y ; ; H P < ; u a d a a a d h u y ; ; < f K u z z s a a u ; ; ; ; - - - @ @ @ & 1 @ # 9 O . ",
"Y B c ] q.K.'.].'.Y.U.r.5.] c u y u y i K j f ; i u a s s s s B z u u y y ; < E h h M M c l u u y y ; ; ; - - @ @ : D.' q # . . ",
"h Y B ] j.J.Y.].].'.T.r.5.] c z h u h Y l ; i y u u d n c c c c B z u y y ; y h l d -.S.-.c s s a a y h h ; - - - - U ! % + # . ",
"u u T ..[ e.Y.].OXXX{.G.6.%.X.N B z W T l y u a z z Y a c c v c c a u u y ; y u u s S.0X3Xc c c c c s M z u ; ; H 2 e 1 + + + . ",
"p s v ,.%.5.I.Y.]. XXXU.6.@. .] x >.G M M a a s n z h a c v | N c B d u y h i y u a =.F.3.b c c c c c c n a y ; H L , @ @ @ + . ",
"a M x ] 2.&.e.K.Y.]. X'.G.O.o.#.1.X.b b x M s s a a a s c b ] *.N n s u y E Y y u a s c c c c c c v N c s s g E P f ; - - @ + + ",
"d s c ] #.j.k.t.H.Y.].'.T.t.8.j.0.o.[ ] ] v N V c V N c b ] ] ] b N c a u h h y y u u a s c v N ..b N c c c T C.h y ; ; - @ & & ",
"B M c  .$.0.m.v.e.H.'.].E./.b.k.6.6.5.o.[ b v v c v b b ] ] ] ] ] | M s a u u u u u u a s c N | b v v b b ..>.N c s u ; - @ 1 1 ",
"a c c { o.o.O.j.q.e.K.}.{.=X:Xp.p.t.e.5.[ ] v c v b ] ] [ ] ] ] ] ....s a y y u a a s s c c b b b b ] {  .1.N b v c a y ; @ @ + ",
"y a v b [ [ [ [ ;.a.u.R.$X(.P.I.I.G.y.q.@.[ ] ] b b ] ] ] { { b ] ] v c a u d u a s c c v v b | X.]  .2.z. .*...| N s a f > @ @ ",
"u n <.m ] b b ] ] j.s.Q.R.Y.Y.E.E.Y.R.Q.d.O.[ [ ] { } ] ] b b b ] ] b c a u d u z n v N b ] b ]  .[ %.k.$.[ } | | N c s d f - @ ",
"; z M c c c c b { #.x.v.I.Y.'.}.&XXX].E.J.7.@.o.o.o.o.o.[ ] b b ] ] v c s a a u s x N b ] [ [ [ [ &.x.w.O.o.] b c V >.c a ; - @ ",
"; y a a a s M N { 2.0.b.~.`.U.Y.]. X.X].Y.t.5.5.5.5.5.O.o. .{ ] ] ] v c s s a a c x | b ] ] ] [ &.j.k.k.O.$.o.] N 4.m c s i - - ",
"- ; y u u a M N ,.%.8.e.!.~.G.U.'. X.XXXY.G.6.6.e.e.e.i.w.o.[ [ ] b v c c c a z M c v | ] ] [ +.j.0.v.q.d.6.O.#.{ X.b c M l ; - ",
"- - ; k i y d <.Z.{ w.7.6.f.p.G.U.'.].].'.U.r.r.r.I.P.L.i.8.O.#. .] | m x >.n n c v b { [ [ %.2.@.5.7.e.i.v.@.&.X.] ] c s h f - ",
"@ - - - : < Y T 4. .o.5.6.8.g.p./.E.}.'.].'.U.H.H.T.(.I.G.h.q.O.o.] ] ....v c c c N *.;.&.&.j.$.5.6.6.e.t.b.k. .] ] b c a i ; - ",
"q @ - - ; y B N b { #.O.8.O.5.9.J.I.Y.'.].].{.'.[.E.E.Y.H.r.e.6.O.o.[ { :.] b v { { 1.l.&.k.8.5.6.5.6.e.t.i.0.2.{ ] X.,.c u ; - ",
"3 @ - ; ; u M v b  .&.O.$.O.5.6.e.G.Y.'.'.|.&XXX#X4X<XY.H.G.r.6.5.8.o.[ ] [ ] ]  .[ o.&.k.i.6.6.6.6.6.6.n.^.8.&.1.] %.1.c a y 2 ",
". + - 2 ; d V.m ]  .&.&.$.O.O.5.6.y.W.Y.'.|.#X X.X1X,XY.Y.H.r.e.6.7.O.o.[ [ [ #.o.O.w.v.7.e.e.e.>Xs.6.e.e.e.9.@.%.1.] v c a y < ",
". + - P i u M b ] ] [ #.j.o.O.O.5.i.P.Y.'.XXoX.X.X X].'.'.H.G.y.e.5.o.o.#.o.o.o.O.q.b.u.J.y.r.r.b.7.e.r.r.e.6.#.[  .,.v s u y ; ",
". + @ : ; u c { [ [ [ [ o.o.O.O.8.p.G.E.|. X X.X.X X X].Y.H.G.L.y.6.5.O.o.o.$.8.q.b.t.r.G.G.r.r.G.L.J.G.G.e.q.c.] ] ..>.n a l h ",
"+ + & : ; a c { %.@.#.o.o.o.O.5.6.e.r.H.Y.'.]..X.XoX@X+XY.G.r.e.e.e.6.O.O.O.5.q.b.e.r.r.J.y.G.G.I.P.G.H.G.e.$.%.{ ] v m >.n l W ",
"+ @ - - ; a c ] j.$.$.O.@.O.O.8.5.6.e.r.G.H.Y.]..X X|.}.U.G.r.L.I.G.e.6.5.O.0.v.e.r.r.r.~.Q.r.G.G.G.G.H.G.6.O.o. .] ] ] ..>.g h ",
": 2 - ; y a c ] o.o.$.O.O.O.O.w.8.5.6.i.e.r.G.U.].'.U.U.H.G.r.P.U.K.L.e.6.w.M.7.e.r.r.r.y.r.J.I.H.G.r.r.r.6.O.o.[ ] [ ] b N T d ",
"Z ) f ; u a c ] o.@.q.$.$.O.$.$.O.O.O.5.5.6.6.e.G.r.e.r.G.G.L.I.Y.U.G.e.q.v.5.e.r.r.r.G.G.G.I.H.H.G.e.e.6.5.O.o.o.o.[ #.] c n d ",
"- > ; y u s c ] #.a.$.q.m.8.$.@.o.o.O.$.O.O.O.5.6.5.5.6.r.G.P.I.H.H.r.i.v.8.6.e.e.e.r.G.H.K.R.H.H.r.e.6.5.q.0.o.o.@.@.#.[ v s u ",
"- ; ; ; u a m  .$.O.$.0.8.8.0.j.[ o.&.j.[ [ o.o.o.o.&.5.e.G.G.H.H.G.p.v.7.7.6.e.e.u.G.H.U.U.U.U.H.r.t.i.5.8.0.w.o.O.O.o.[ ] x B ",
": K < ; u d M { [ o.k.q.6.q.5.$.O.$.o.#.[ ] [ [ [ %.%.5.e.r.G.H.I.y.b.6.6.t.e.e.r.I.T.K.U.Y.U.H.r.e.e.6.6.6.5.8.6.5.5.O.o.[ ..4.",
"- > ; ; u d n ..] [ o.O.6.6.5.5.5.5.o.[ ] b ] ] ] %.#.5.*X*Xr.I.).Q.7.6.6.e.e.e.H.-X;X-XT.U.G.r.e.6.e.6.6.6.6.i.6.6.6.8.k.O.[ ] "
};
