/* XPM */
static char *_72d59e3fad3482aa2142fb1229d5661BhGxlIwYOxpoUHGZ[] = {
/* columns rows colors chars-per-pixel */
"64 64 88 1 ",
"  c #005B5B",
". c #2B5959",
"X c #315E5E",
"o c #016363",
"O c #006D6D",
"+ c #007373",
"@ c #007A7A",
"# c #097F7F",
"$ c #316060",
"% c #316C6C",
"& c #2F7373",
"* c #2B7D7D",
"= c #337272",
"- c #327B7B",
"; c #008282",
": c #0A8383",
"> c #008B8B",
", c #0F8D8D",
"< c #009393",
"1 c #0C9292",
"2 c #009A9A",
"3 c #0D9D9D",
"4 c #119393",
"5 c #119C9C",
"6 c #3B8383",
"7 c #3B8A8A",
"8 c #229797",
"9 c #259999",
"0 c #289B9B",
"q c #349797",
"w c #00A3A3",
"e c #0EA4A4",
"r c #00A8A8",
"t c #0FADAD",
"y c #11A3A3",
"u c #11AEAE",
"i c #1DADAD",
"p c #1FB2B2",
"a c #22A6A6",
"s c #22A9A9",
"d c #36AEAE",
"f c #3BACAC",
"g c #21B4B4",
"h c #2BB5B5",
"j c #33B6B6",
"k c #39B1B1",
"l c #34BABA",
"z c #3AB9B9",
"x c #4D8888",
"c c #6C9494",
"v c #41BABA",
"b c #43BFBF",
"n c #46BFBF",
"m c #49BEBE",
"M c #4EBFBF",
"N c #56BEBE",
"B c #48C0C0",
"V c #4FC0C0",
"C c #56C2C2",
"Z c #56C4C4",
"A c #5CC3C3",
"S c #5BC4C4",
"D c #5DC4C4",
"F c #6AC1C1",
"G c #6AC4C4",
"H c #6CC6C6",
"J c #6ACACA",
"K c #6BCCCC",
"L c #70C7C7",
"P c #76C9C9",
"I c #7CCBCB",
"U c #7CCECE",
"Y c #82D1D1",
"T c #85D4D4",
"R c #8CD3D3",
"E c #8ED4D4",
"W c #8FD8D8",
"Q c #91D8D8",
"! c #94D9D9",
"~ c #A3DFDF",
"^ c #ABDEDE",
"/ c #AEDFDF",
"( c #B2E5E5",
") c #C1EBEB",
"_ c #C5E9E9",
"` c #CAECEC",
"' c #CFF0F0",
"] c #D3F2F2",
/* pixels */
"c-****66666xxx6xxx6x6x6x666666666666***************************.",
"Etrrjzuupgglnzzznzlnznzllglglglgggppuuuuttuttttrrrrrrrrrrrjzrrr ",
"Eewj^R3<tupggglzzzlnznBznznzzzzzglglglgggggggpguuuuuuuuutj^R3<w ",
"E32G_S1@wrtuuuplglglzznznBBBznznznzzzzzglglglgggggggggggpG_S1@to",
"E32dM3;<wwrrtrtpupuplglzznznBBBBBBBznznznzzzzlglglglggggpnV3;<to",
"E1<<2<>wwwww>wrt>ttt4pgl4jzz9jnB0nBB0nBB0nzn4bzl4jlz4plglgue5uuo",
"E1>><222wwww>wrr>wtt>pup4plg4hln4bBB9nBB9nBB9nBz9jnz9jzzzzglglgo",
"E1>>><<222w>>>>>>>>1>1>111444848489999999999999999999Tznznzzzzzo",
"E1>>>>><222+ooooooooO+++++++++++++++++OO+++O++++++++q`ZBBBBznzno",
"E,>>352><<2+ +@+@@@@>>>>>>1>1>1444444484848488888888U]ZBBBADhgno",
"I:;3Cz3;>><+ 222wwwwwwrrrrtrtuupupupuplglzzzlnznBBBBQ]ZBBA/R3<bo",
"F:;eJh>+>>>+ >222w2wwwrwrrrrwtrtuuupupggplglglzznznB!]ZBBL_S1@vo",
"F:@>s2;+;>>+ ><22222wwwwwwrrwwrrtuupupupupgggglglzznQ]ZBBmV3;<bo",
"F:@@;@++;>>O >>222222wwwwwrwrrrrrtrtuuuutpggggggglglQ]Zznzga0gno",
"F:@@++@@;;>O ;><<22222w2wwwwwwrrrrrrtrtuupupupggggggQ]bzznznBBBo",
"F#@@@@;;;;;O ;>>><<<22222wwwwwrwrrrrrrrtuuuuupggggggQ]llglzznzno",
"F#@@@@@;;;;O ;>>>><<22<222w2wwwwwwrrrrrrtrtuupggupggQ]lggglglzzo",
"N#@@>>;@;;;O ;>;>>><2<<222222w22wwrwrrrrrrrtrtpuupggQ]lggunmuggo",
"v#@>e2>@@;;O ;>>>>;><<<2<22222w2wwwwwwrrrrrrrrtuupupQ]gpgj^R3<po",
"v@@<tw;o@@;O ;;>>>>>><><<22222222wwwwwrwrrrrrrrtrtuuW]gpgH_S1@io",
"v@+@>>+ +@@o ;;;>>;>>>>><2<2<22222w2wwwwwwrrrrrrrrtrE]gpunV3;<po",
"v@+OOooo@@@  @;;;>>;>>>>><<2<22222222w22wwrwrrrrrrrrE]guupuy5upo",
"v@++ooO+@@@  @;;;;>;>>>>>><2<2<2<22222w2wwwwwwrrrrrrE]grtpupupuo",
"v@+++@@@@@@  @@@;;;;;>>>>>><<<<2<22222222wwwwwrwrrrrE]urrtrtuuuo",
"v@+++++@@@@  @@@;;;;;;>>;>>><<<2<2<2222222w2wwwwwwrrE]urrrrrtuuo",
"v@++;@@+@@@  @@@@;;;;;;>;;>>><><<2<2222222222wwwwwrwU]urrrjzrtr ",
"v@O;e2>++@@  @@@@@;;;;;;;>>>>>>><2<2<222222222w2wwwwG'urrj^R3<w ",
"v@O>e2;O++@  +@@@@@;;;;;;>>>>>>>><<<<222222222222wwwG)uwrG_S1@w ",
"v@O@;@o ++@  +@@@@@@;;;;;;>>>>>>>><<<2<22222222222w2G(ywwnV3;<w ",
"v@+Ooo o++@  +@@@@@@@;;;;;;>>>>>>>><><<<2<2222222222G(ywwtw2<wr ",
"v#+OoooO+++  +@@@@@@@@;;;;;;>;>>>>>>>><<<<2222222222G(u2wwwwwwr ",
"j#++OO+++++  +@@@@@@@@@;;;;;;;;>;>>>>>><<<2<22222222G(y22wwwwwwo",
"i@++OOO++++  +@@@@@@@@@@;;;;;;;;>>>>;>>><<<<22222222F(y222w2wrw ",
"i@@@@+OO+++  +@@@@@@@@@@@;;;;;;;;>>>>>>>><><2<222222F(522wjkww2 ",
"i@@;2>+O+++  ++@@@@@@@@@@@;;;;;;;;>>>>>>>>>><<<2<222N~322j^R3<2 ",
"i@@>2<@oO++  +++@@@@@@@@@@@;;;;;;;;>>>>>>>>>><<<<222v!322G_S1@2 ",
"i;@@;@o OO+  ++++@@@@@@@@@@@;;;;;;;;>>>>>>>>>><<<2<2b!322dM2;<2 ",
"i;@+oo oOO+  +++++@@+@@@@@@@@;@;;;;;;>>>>>>>>>><><<<b!32222<>22 ",
"i;@+OooOOOO  ++++++@++@@@@@@@@@;;;;;;;>>>>>>>>>>><<<b!322222222 ",
"i;@@@+++OOO  +++++++@@@@@@@@@@@;@;;;;;;>;>>>>>>>><><bY322222222 ",
"i;@@@@+++OO  +++++++@@@@@@@@@@@@@;;;;;;;;;>>>>>>>>>>vL1222<2222 ",
"i;@;;;++++O  O++++++@@@@@@@@@@@@@;@;;;;;;;;>>>>>>>>>vL1<22as2<2 ",
"i;@>e2;++OO  O+++++++@@@@@@@@@@@@@@;;;;;;;;;>>>>>>>>vL1<<gJD3;2 ",
"i>@<e2;o+O+  O++++++++@@@@@@@@@@@@@;@;;;;;;;;>>>>>>>jH1<>jYP1@2 ",
"i>;@;@o +++  OO++++++++@@@@@@@@@@@@@@;;;;;;;;;>>;>>>pH1>>3jf>;< ",
"i>;+oo o++O  OOO++++++++@@@@+@@@@@@@@;@;;;;;;;;>>>>>pH1>>>2>>>> ",
"i>;+OOO++++  OOO++++++++++++@+@@@@@@@@@;;;;;;;;;>>>>pS1>>>>><<> ",
"i>;;@@@@+++  OOOO+++++++++++@@@@@@@@@@@;@@;;;;;;;>;>pn1>>>>>><> ",
"i>;;@@@@@++  OOOOO+++++++++@@@@@@@@@@@@@@;;;;;@;;;;;in1>>>>>>>> ",
"i>;;>;;@@@+  OOOOO++++++++++@@@@@@@@@@@@@;@;;;;;;;;;in1>>>352>> ",
"i>;>e2>@@@+  O+OOOO++++++++++@@@@@@@@@@@@@@;;;;;;;;;eb>>>3Zz2;> ",
"i>;<e2;o+@+  O++OOOO++++++++++@@@@@@@@@@@@@;@;;;;;;;wl>>>pKh>@> ",
"i>;@;@o +@@  +++OOOO++++++++++@@@@@@@@@@@@@@@;;;;;;;wp>;>3g2;+> ",
"i>;+oo o@@@ o@@@@@@@@@@@@;;;;;;;;;;;;;;;;;;;;;>>>>><wp>;;>2;+@> ",
"i>;@OOO+@@@ +><>>>>>;>>>>>>><<<<<<<22222222222222euuup>;;;>@@>> ",
"i<;;;;@@@@@O@;;@@@@@@@@@;;;;;;>>>>>>>>><<><<<<<<<15555;;;;;>>>> ",
"i>;;;;@@@@@@ +++ OOO OOO +++ ++@ +@@ ++@o+@@o@@@o@;;o;;;;;;;;>> ",
"i>>;>>@@@@@@ +++ O+O OOO +++ +++ +@@ +++ +@@o@@@o@@;o@;;;;<2>;> ",
"i>>>sy@+@@@@@+++++++OOOO+++++++++@+@@@@@@@@@@@@@@@@;;;;;;<ju>@; ",
"i>>2j5@o@@@@@@++++++OOOOOO++++++++++@@@@@@@@@@@@@@@;@;;;;wnu>+; ",
"i<>>,@o @@@@@@+++++++OOOOO+++++++++++@@@@@@@@@@@@@@@@;;;;<32@+; ",
"i<>+oo o@@@@@@@++++++OOOOOO+++++++++++@@@@@@@@@@@@@@@;@;;;@@+@; ",
"7--%XXX%====%%%%%%%%%%%%%%%%%%%%%%%%%%%%%%%%%%=%==========%%%==$",
"&==============================================================="
};
