/* XPM */
static const char *floor_lava_resized[] = {
/* columns rows colors chars-per-pixel */
"64 64 256 2 ",
"   c #3C1A1B",
".  c #341819",
"X  c #2F171A",
"o  c #3F2022",
"O  c #4C1319",
"+  c #441C1C",
"@  c #4C1E1D",
"#  c #491A16",
"$  c #53161A",
"%  c #531F1D",
"&  c #5C1B1B",
"*  c #581919",
"=  c #5F0B03",
"-  c #631C1C",
";  c #6B1E1D",
":  c #651C14",
">  c #6F1002",
",  c #4E211C",
"<  c #4A2214",
"1  c #54211D",
"2  c #5B231E",
"3  c #5A2417",
"4  c #632416",
"5  c #63241E",
"6  c #6B251E",
"7  c #64291B",
"8  c #6B2A1D",
"9  c #6B2815",
"0  c #752C14",
"q  c #73241D",
"w  c #7C251E",
"e  c #742B1C",
"r  c #7B2C1D",
"t  c #7A2A14",
"y  c #7B331D",
"u  c #78361B",
"i  c #6E301D",
"p  c #492828",
"a  c #5D2220",
"s  c #522B20",
"d  c #4F3030",
"f  c #553532",
"g  c #642420",
"h  c #6B2520",
"j  c #6D2920",
"k  c #652A24",
"l  c #732521",
"z  c #7B2621",
"x  c #732921",
"c  c #7B2B21",
"v  c #6C362B",
"b  c #7D3121",
"n  c #753429",
"m  c #783A34",
"M  c #6B3932",
"N  c #7D432D",
"B  c #70514E",
"V  c #7C6463",
"C  c #5E4343",
"Z  c #901D03",
"A  c #82261E",
"S  c #842B1C",
"D  c #8A2C1C",
"F  c #832B15",
"G  c #922C1D",
"H  c #972E19",
"J  c #843214",
"K  c #8B3414",
"L  c #84331D",
"P  c #8C341C",
"I  c #8D3B1E",
"U  c #853C18",
"Y  c #943415",
"T  c #9C3514",
"R  c #9B3C14",
"E  c #93341C",
"W  c #9B341C",
"Q  c #933A1D",
"!  c #9B3B1C",
"~  c #923914",
"^  c #993B0E",
"/  c #A92906",
"(  c #A83B0D",
")  c #BA370A",
"_  c #A12E1D",
"`  c #A53B13",
"'  c #AC3C13",
"]  c #A3331B",
"[  c #A43C1B",
"{  c #AC3C1B",
"}  c #A93517",
"|  c #B43B15",
" . c #BC3D14",
".. c #B43B1B",
"X. c #B73A19",
"o. c #B72E07",
"O. c #842621",
"+. c #832C22",
"@. c #8A2C22",
"#. c #8A2622",
"$. c #932C22",
"%. c #9A2D22",
"&. c #843221",
"*. c #8C3222",
"=. c #8A3927",
"-. c #933323",
";. c #9B3423",
":. c #953921",
">. c #9B3B22",
",. c #943F2E",
"<. c #843B33",
"1. c #A32E22",
"2. c #A33424",
"3. c #AA3423",
"4. c #A33B23",
"5. c #AC3A23",
"6. c #B53823",
"7. c #C63708",
"8. c #C63D19",
"9. c #CF3905",
"0. c #C63824",
"q. c #8B461D",
"w. c #98461A",
"e. c #99541C",
"r. c #BC440D",
"t. c #B6460C",
"y. c #AC421C",
"u. c #A74717",
"i. c #B44413",
"p. c #BC4314",
"a. c #B2431B",
"s. c #B9491A",
"d. c #A75519",
"f. c #B85717",
"g. c #B2500E",
"h. c #B86614",
"j. c #BA6D11",
"k. c #894323",
"l. c #984424",
"z. c #88443A",
"x. c #964539",
"c. c #A44322",
"v. c #AC4422",
"b. c #A74B21",
"n. c #B94723",
"m. c #BA5522",
"M. c #A44936",
"N. c #AC562C",
"B. c #BE6339",
"V. c #C4440D",
"C. c #C44B0E",
"Z. c #CA470B",
"A. c #D34D0C",
"S. c #DB4E0D",
"D. c #D94707",
"F. c #C7550E",
"G. c #D5520D",
"H. c #DB520C",
"J. c #DD5B0C",
"K. c #D65A09",
"L. c #C34413",
"P. c #CC4413",
"I. c #CD4B13",
"U. c #C4421C",
"Y. c #CB4319",
"T. c #C54A15",
"R. c #D24C13",
"E. c #D64715",
"W. c #CC5213",
"Q. c #C75716",
"!. c #D65815",
"~. c #E64B08",
"^. c #E3530B",
"/. c #EB540A",
"(. c #E45C0B",
"). c #ED5B0A",
"_. c #E95706",
"`. c #F55B06",
"'. c #FC5C04",
"]. c #F15609",
"[. c #F35B09",
"{. c #F55706",
"}. c #E34B13",
"|. c #E45A13",
" X c #F04F0B",
".X c #CB650D",
"XX c #D7660D",
"oX c #C86616",
"OX c #D76616",
"+X c #C67715",
"@X c #DA7816",
"#X c #D6780D",
"$X c #E4630C",
"%X c #EA640B",
"&X c #E36C0C",
"*X c #EA6A09",
"=X c #F3640A",
"-X c #F76806",
";X c #EB740B",
":X c #EB7B0B",
">X c #E5760A",
",X c #F77707",
"<X c #E56713",
"1X c #E37914",
"2X c #F17311",
"3X c #C64A21",
"4X c #C65824",
"5X c #D25720",
"6X c #CD692F",
"7X c #EA7730",
"8X c #854B44",
"9X c #85524B",
"0X c #975849",
"qX c #865A57",
"wX c #95574F",
"eX c #A55C45",
"rX c #986359",
"tX c #966150",
"yX c #A96B57",
"uX c #886966",
"iX c #966965",
"pX c #9C7A74",
"aX c #A87468",
"sX c #AC766B",
"dX c #D07047",
"fX c #E87D44",
"gX c #C47461",
"hX c #D7850D",
"jX c #E8850A",
"kX c #FA8406",
"lX c #F48308",
"zX c #F58A08",
"xX c #EB960A",
"cX c #FC9305",
"vX c #F49309",
"bX c #F79A08",
"nX c #E68716",
"mX c #F69419",
"MX c #FBAC06",
"NX c #F3A40A",
"BX c #FAA607",
"VX c #FDBB04",
"CX c #FAB407",
"ZX c #F2A513",
"AX c #DE8F2E",
"SX c #ED9131",
"DX c #F7AA26",
"FX c #FEC504",
"GX c #FDD406",
"HX c #F4C836",
"JX c #AC847A",
"KX c #D18A55",
"LX c #E6914B",
"PX c #EFB954",
"IX c #CB9771",
"UX c #E8A366",
/* pixels */
"2 2 2 2 5 2 a 2 q l h j x 8 i.Y L b x j h 6 h h 6 6 6 g g 5 ` p.h x x c c c c c c c c c 6 h F J @ 1 2 2 2 a P 4 + + , , 1 1 1 7 ",
"5 5 5 6 6 5 a % 6 x x x h 2 Y P &.c c c c c c c x x h h h h w | r c &.&.+.+.+.@.@.*.@.@.+.l Y K 5 g 2 % & D L.4 + 1 1 2 2 2 2 7 ",
"6 6 6 6 h g 2 2 q x x 2 @ e y.P &.c c c c c c c c c h h l l A L.T P -.:.-.*.+.+.*.-.-.-.@.w p.Y c h % 4 ' /.^.3 1 a a 5 5 5 5 i ",
"8 x x x j g @ 6 e 1 @ % y F.!.Q +.l h g 5 5 5 h h h l w A D X.=X*XQ.f.v.-.+.l z +.-.-.@.D V.[.Y x 5 q } / / V.4 g 6 6 6 6 6 6 i ",
"e e c c 6 % % A D % 6 R XXvX:XQ.{ $.O.z l l q l w D | S.S.S.).,XcXbXxXOXv.@.l z O.+.+.] P.~.].T q A X.) > = / K 5 j j j j x x y ",
"c c c 6 @ @ 6 ] L.' F.jXMXNX@X!.Y.U.X.} _ _ %._ X.S.G.Y 9 0 J g..XjXBXbX<Xp.3.1.3.} 8.7.Z / D.S...P. X7.Z Z / t.4 x c c e c c L ",
"c h % @ % q W 8.D.(.cXVXNXoXc.-.D H } p.R.E.E.}./.p.6 % @ + + , 7 U u.g..X$X}.}./.].~./ / 7.~.[.^.^.S.D.9.9.~._.0 j c c c c +.L ",
"@ + @ - w ] 8.o./ K.BXNXoXc.*.z l l l q S T V.`.V.5 a 2 % % @ @ 1 2 7 3 1 3 K C.[.'.~.~.D. .Y t : : & : : q F ` R 6 x c x q 6 7 ",
"@ % q D | ^.D.) C.&XvXoXl.@.z l h h h h h h q r.V.6 g a 2 1 1 @ @ , , @ +     # 0 C.H.Y : O O O O O O O O $ $ $ D e 5 2 2 1 @ 3 ",
"q A _ P.].i.e r I w.!.[ +.l h h h h h g g h h F I.t g 5 2 2 2 % % @ @ @ @ + + + + 3 t O O O O O $ $ $ $ $ $ $ * q ~ 5 2 2 2 5 9 ",
"]  .7.7.V.6 g x &.P p.A l h h h g g g g g g g 5 i.Y h 6 g g a a 2 % % % @ @ @ @ @ % - $ $ $ $ $ $ $ $ & & * & - ; ` Y r r L P ! ",
"^.~.o.o.t g h l c D | q h h g g g g g g g g h g Y i.q x h h h h h 6 2 2 2 1 1 1 % % & $ $ $ & & & & & & & & - ; q Y W.{ y.a...s.",
"R J t 9 2 x c +.c W | l h g g g g g g 6 6 6 j h F G.D c c c c 8Xm x x j h g 2 2 2 2 & & & & & & & - - - - - ; q w D K.<X!.OX$X*X",
"6 2 1 % 2 c @.*.+.p.' h h g g g g h 6 6 6 j x 8 P (.s.S c +.<.z.&.<.c c c c x h 6 5 - & - - - - - - - ; ; ; q w D E F.kXvXbX:Xg.",
"y 6 2 2 2 +.-.-.W !.u.c x h h 6 6 6 j j x x 6 e s.zXjXu.+.c *.=.0Xx.@.@.+.c c c c 6 q & - - ; ; ; ; ; ; ; q w A P ! f.vXVXNXh.w.",
"y e 6 g g c -.>.s.;Xa.*.b x h 6 j j x x h 1 4 R >XCXBX>X[ c c =.x.;.-.-.*.*.@.+.c q F - ; ; 6 q q q q w w w A @.E [ s.jXCXhXd.w.",
"&.x j 6 h c -.n.1XBXoXc.*.c j j x x 8 2 + * Y &XbXjX.X>XXX] c c -.c.v.c.>.*.+.c c E ` - 6 q q w w w w A A O.+.@.;.4.v.oXjXf.b.w.",
"&.c x l c &.v.OXMXGXxXu.L 6 2 1 1 1 + # 4 ` (.;Xf.! Q Y W.(.s.b.b.b.b.l.*.@.@.W { G.A.q q z w A A O.+.@.@.@.@.$.;.4.4.s..Xw.c.w.",
"*.c c c c W Q.vXFXGXCX#Xg.t 2 @ @ % - F  .`./.T +.+.+.b R ;XlXjX@X+Xm.v.5.3.p.R.S.D.H.` w A @.@.@.#.#.$.$.$.$.$.;.2.4.} W.P >.w.",
"*.+.+.+.D G.,XjXnXnX1X>X-X*XG.t.` ` | 7.9.{.!.c c r y U h.bXVXVXMXvX:X!.E.^._.D.r.t.Z.K.W A @.$.$.$.$.%.%.%.%.;.;.;.2.W W.P :.! ",
"-.@.+.@.L.).i.y.4X4X4Xs.&XkX-X'.,X,X=Xn.o.7X4Xq x y u d.xXVXFXCXbXjX>X*X`.-X{.D.V.V.K.lXQ.E A $.%.;.;.2.2.2.;.;.;.2.2.H I.Y -.>.",
"+.+.@.| /.' 8 L >.v.v.s.lX-XI. .| G.,XfX6XfX6Xe i u e.+XMXVXxXoXd.Q D D T C._.-X-X;XbXVXzXa.D A %.2.2.3.3.3.3.2.2.2.2.$.R.` @.:.",
"#.%.X.].^.9 2 8 y P u.:XlXL.$.+.z S 5XSXLXUXLXtXk.q.h.vXbX#Xd.:.+.l l h h q F u.F..X@XxXcXJ.W A +.;.2.3.3.3.3.3.3.3.%.#.P.V.w D ",
"P.E.].'.`.t.0 7 e w.>XkXW.;.@.+.l m aX7XmXPXSX6Xd.F.,X:Xf.Q c l h h h h h h h c &.>.v.s.XX-XP.2.-.@.O.O.#.#.$.%.%.%.#.#.P./. .L.",
"J 9 0 ^ C.(.(.F.f.jXcX<Xy.-.*.&.x m yXF.DXHXDX,X-X-XJ.! c l h h g g g g g g h h c &.*.-.Y J.=XW.n.2.$.#.O.O.#.#.#.$.$.%.A.'.^.t.",
". X X . # 9 R .XlXBXvXoXb.>.=.rXm M iXKXPXZX>X;X,XG.P l h h g g g g g g 5 g g g h x c c +.u.,X,X|.Y.X.1.1.%.1.2.2.3.5.L.[.C.4 < ",
"        < , 7 u f.xXBX@XyXeX0XaXj 9XqX6XmX,XJ.-X$XY c h h 5 g g g g 2 g g g h h h h h c &.d.vXcX-X[./.}.E.Y.U.U.3X4X!.;Xt.4 + < ",
"+ +   + , 2 8 u e.h.xXvXLXIXz.z.n qXz.XX(.D.-X-Xi.c x h g g g g g g g 6 6 h h h h j x &.l.hXMX:Xi.T T ' p.R.|.*XAXUXmX.Xe 5 1 3 ",
"1 , + @ , 2 8 y q.e.d.AXSXLXyXz.n v u.-X) o.=X=XY c h g g g g g g 6 6 6 h j j x x x c k.h.NXjXa.+.h h h l +.;.B.UXPXAXw.y 8 5 7 ",
"5 2 2 1 1 2 7 i y q.eXyX6X7XdXrXk.h.lX-X) V.-X$XP x 6 g g g h 6 6 6 j j j x x x x x &.e.xXvXf.*.l g 2 2 5 c 0XsXIXDX#XI &.x 6 8 ",
"6 6 6 5 2 2 7 8 b tXtXaXrXKX<X.XjXBXbX;X$X%X,XXXI b j h h h 6 h 8 j j j g 5 2 2 2 8 w.hXBXoX>.c x g 5 k v 8XJXsXB.lXg.P &.c j e ",
"x x j 6 6 6 7 v m iXm n 8XyX!.kX;XOXf.a.s.oXlX>Xe.=.b x h j j j j x h 1 + + @ & q R &XBXvXa.*.c x 6 6 v uXpXiXx...;XR *.&.c c y ",
"c c c x m h m iXiXrXrXm z.,.| (.{ -.*.*.k.d.jXCX+Xe.=.b x j x x x h +   # & 6 w ` (.kXbXzX[ @.*.&.e x qXpXpXz.-...G.P *.&.+.+.L ",
"&.+.&.b rXiX9XqXqXqX9XwXQ ..!.I.-.c h j y q.j.CXCX+Xw.y 6 2 1 1 % + + * 6 A H V./.D.V.*XzX..*.P l.0XwXiXJXz.c +.X.T.q c @.*.*.P ",
"*.@.x.yXaXJX8XqXiXqX0X>.n.OXlXQ.*.x 5 2 8 U e.+XNXVXhXg.U 9 4 9 9 t Y ` V.S.].'.D./ / H.kXJ.a.M.eXsXpXpXM 5 l %.E.Z.A h 5 l +.Q ",
"l c <.sXaXz.rXm rXyXn.!.1XNXCXoX:.e 5 1 2 u k.e.+XCXMXvXjX&X/._._./.~.D.D. X'.'.{././.[.-XkX>X6XIXJXyX0X=.G 3.8.]./.| G w 6 5 e ",
"6 h rXwXiX8X0XsX5X[.-XzXvXVXMXQ.:.r 6 2 2 7 u q.oXvX@Xh.d.u.' S.`.~./ / 7.~.'.].V.` E { !.vXCXZXLXKX4XU.8.Y.}.]._./._.S. .] D F ",
"N.M.M.sXeXgXdX[.'._.I.s.T.jXbXf.:.r 6 2 % @ 2 I Q.>Xm.l.u b c W /. XD.~.'._.| S 6 h c *.v.OXCXGXCXmX2X2X=X^.L.` G G ] P.`.].}.R.",
"0XaXl.dXdX).`.^.' D @.;.5.OX,Xa.*.c 5 @   @ q ! !.%Xu.U u u &.[ %X,X-X[.L.F 5 2 a 2 h &.>.4XnXCXFXCXzX$Xi.D z l l z O.$.S.`.H.t.",
"uXqXiXqX:.].A.w g g h c -.T.=X{ +.6 % % 2 q Q U.).=XT.Q y y P s.,X,XJ.{ S h 2 % % 1 2 e I v.4X@XvXBX;X{ &.c c c h 6 l ] G.R 4 4 ",
"rXrXm x S /.T 2 1 1 2 g c i.`.X.$.+.c c L ! y.i.u.u.i.a.y.a.Q.;XcXXXn.>.&.8 2 , @ @ 1 7 y :.v.m.!.kX$X4.&.c c c 6 5 5 p.` 5 h e ",
"=.,.c l } ^.t 2 1 1 1 2 h ' `.Y.5.5.-.r 7 2 3 @ @ 1 5 e I s.1XbXBX@Xm.c.&.e 2 1 @ , 1 2 8 &.:.v.!.,X(.>.&.x x 8 5 1 6 C.F c +.P ",
"c l z %.E.Z.q g 5 2 5 g l ' './.s.L 3 + + + + @ , a 7 e *.u.+XMXVXnX4Xc.:.b h 2 1 1 2 1 % 5 r v.|.-X(.4.&.j 2 @ + # r R.D @.-.Q ",
"z #.3.Y.{.i.c x j 8 x c c | `.i.3 + + + @ @ @ @ 1 a 6 y I u.oXxXVXnX4Xv.:.&.x 6 5 5 2 + @ 2 S 3X2X,X*Xy.+.5 @ + @ q [ ^.H c z r ",
"3.8.}.'.'.' +.@.+.+.+.c r S.` @ + + @ @ @ , 1 1 1 2 6 r P w.f.hXMX1Xm.v.>.*.c q j h 1 8 R i.W.%XkX*XG.W.;.+.e e P { I.[.| #.#.W ",
"/./.Z.Z.`.L.#.@.@.&.c 6 p.C.% + @ @ , 1 1 1 1 2 2 5 8 r L I u.OXcX&Xn.v.4.-.&.c c 6 r C.,X,X;X;X;X$XJ.(.R.....p.Y.I.I././.Y.8.R.",
"' F 5 6 r.[.| D @.*.E i.(.0 + @ @ 1 1 2 2 a g g g g 8 e r L Q J.,X-XI.v.4.;.-.*.e r i.=X*X` t t J K P Y ^.`.^.P.} G @.W ^.'.'.(.",
"a % % % 9 A.`.|.!.5X!.,Xg.1 % 1 2 2 5 6 g g 6 h h h h 6 6 c W !.G.%X-XQ.n.v.4.-.L y.*X&XF 2 a 5 h x x F ^.P.W +.c c c z ` /. .K ",
"% @ @ 1 1 4 u.$XkXBXBXlX~ 2 2 5 6 6 h j j j j x x x h 5 5 q [ [ Q s.:XvX@XoXf.f.Q.>XjXw.6 g 6 6 x c 6 ' p.$.@.+.c l l h T p.l 8 ",
"% @ , 1 2 5 e y.1XFXFX#XL j 6 h j x x x c c c c c c l 5 g q F x u q.+XFXFXVXCXNXNXNXh.I &.c c c +.c w L.] -.*.@.@.c x 6 ' W l 7 ",
"1 1 1 2 5 x &.c.Q.bXNXu.&.c x x c c c c c c c c c c l 5 h q n uXM u d.NXNXxXxXbXBXxXu.l.:.-.-.-.-.@.D X.-.-.*.*.@.+.c e p.@.l 7 ",
"2 2 2 6 j c *.4.n.&X:XK b c c c c c +.+.@.@.@.@.@.+.l g l A m B M m w.f.w.w.w.u.f.>Xu.:.4.;.;.-.#.%.8.p.S -.-.*.@.@.x Y  .@.l e ",
"6 h j x c c +.;.4.W.K.e c c c +.@.@.@.*.*.*.*.*.*.c h g O.G w n iXz.t 7 x c *.-.@.' p.$.;.;.$.H X.E.=XC.4 +.-.-.*.c 6 C...$.c y ",
"x h 6 5 5 q O.%.1.Y.Z.6 c +.@.*.*.*.-.-.-.-.-.*.c l l c ;.] T &.x.y % 2 c +.-.-.c D R.p.} X.P.R.p.' (.K.* @ 6 &.c e R ^.| $.@.L ",
"O.A A D G 1.6.0.0.}.Z.4 +.@.*.*.-.-.;.;.;.*.c 6 x c *.2.6.8.}.^.r.4 @ 2 c *.-.c z W $XkX=XG.' t 4 5 ` *Xt +     3 i.' ] p.X.%.E ",
"Y.Y.8.8.Y.E.E.}. X`.K.6 +.-.-.-.;.;.;.*.c g g x +.:.n.3XE./.-X'.T @ 2 5 c *.c l E p.=X,Xi.q 5 g h h ` kXXXU 3 3 R Y c +.] /.}.R.",
"Y K J J J K T ' A.,XlX~ +.;.;.;.-.@.l g g g h +.4.4XOX1X:X*XH.[.K % 5 h c c q W P./ Z.W.6 h h l c z ` kXcX&Xp.C.G.e z @...G.t.u.",
"+ + + @ @ % % % e XXcXoXP -.-.+.q 5 g g g l @.4.3X<XNXMXnXa.W G.Y a g 6 h l W ^.7.> / Z.q c c c +.+.G %XF.E A D L.i.H [ K 3   < ",
"+ + + @ @ % % a 5 R lXzXu.L c c c c l z O.$.} Y.$XbXFXNXoXc.P I.` 5 6 r E { R./.9.o.9.^.S z +.@.@.+.G S.D l c l ' `.C.9   o f , ",
"+ + + @ @ % % a 6 r XXcXXX[ E >.;.;.;.%.]  .R.W.g..XjXvXf.>.L C.T.W { p.p.R 0 3 9 T A.-XK.T +.+.z O.| A.6 h h q p.i.1       B B ",
"+ + @ @ @ % 2 a g 6 F.,X=X%XXXQ.T.n.X.Y.R.i.0 3 2 e U F.J.Y r Z.[.G.i.t % +       + 3 K F.*Xp.H | R.].H.4 1 5 r K #       d C uX",
"+ + @ @ % 1 2 a a e I. .{ W.bXBX:X%XJ.i.9 +   + 1 2 7 e F.C.' ^.r.0 % @ @ @ @ @ @ @ @ @ * K G._.A.t.^ R R 3 # J #       d uXC f ",
"+ @ @ , 1 1 2 a 2 Y ] @.-.y.:XbX:XF.J 3 , , , , 1 1 2 2 0 H.'.t.& 1 a 2 2 1 1 1 1 1 1 2 2 % F r.# . .   3 K i.~     d p d V p 1 ",
", , 1 1 a a a a 6 E z c &.Q XX>Xu.y 8 7 2 2 2 1 a 1 1 1 1 Y `.' a g g g g g g g g g g 5 5 a e ~       + @ % T y   p V f p V B B "
};
